<?xml version="1.0" standalone="no"?>
<!DOCTYPE svg PUBLIC "-//W3C//DTD SVG 20010904//EN"
 "http://www.w3.org/TR/2001/REC-SVG-20010904/DTD/svg10.dtd">
<svg version="1.0" xmlns="http://www.w3.org/2000/svg"
 width="512.000000pt" height="512.000000pt" viewBox="0 0 512.000000 512.000000"
 preserveAspectRatio="xMidYMid meet">

<g transform="translate(0.000000,512.000000) scale(0.100000,-0.100000)"
fill="#000000" stroke="none">
<path d="M1075 3547 c-148 -222 -214 -329 -209 -340 7 -20 65 -57 88 -57 24 0
450 642 442 667 -7 23 -56 53 -85 53 -16 0 -68 -70 -236 -323z"/>
<path d="M3757 3853 c-15 -10 -30 -26 -33 -36 -7 -23 162 -284 189 -293 24 -8
97 41 96 64 0 9 -39 76 -87 147 -94 141 -110 152 -165 118z"/>
<path d="M1464 3752 c-23 -15 -418 -618 -422 -643 -3 -20 3 -31 26 -48 63 -44
58 -48 287 295 116 174 211 324 213 334 2 11 -10 28 -31 44 -35 27 -54 31 -73
18z"/>
<path d="M3581 3732 c-19 -16 -32 -35 -30 -44 2 -9 99 -158 214 -332 228 -343
225 -339 286 -295 17 12 29 30 29 42 0 12 -95 165 -212 339 -231 347 -225 342
-287 290z"/>
<path d="M1642 3643 c-20 -8 -432 -630 -432 -652 0 -24 62 -74 87 -69 23 4
442 624 442 655 1 15 -11 31 -36 48 -40 26 -40 27 -61 18z"/>
<path d="M3417 3625 c-22 -15 -37 -34 -37 -45 0 -24 166 -276 187 -284 29 -11
93 35 93 68 0 24 -156 263 -181 277 -23 12 -19 13 -62 -16z"/>
<path d="M4007 3482 c-51 -31 -46 -49 52 -196 54 -81 98 -136 107 -136 23 0
81 37 88 57 5 11 -24 63 -85 155 -99 148 -107 154 -162 120z"/>
<path d="M2413 3426 c-259 -50 -496 -213 -604 -416 -13 -25 -27 -46 -31 -48
-16 -7 -69 -166 -83 -247 -79 -455 191 -878 642 -1007 112 -32 334 -32 446 0
202 58 373 174 483 328 43 60 90 151 86 167 -1 4 2 7 8 7 15 0 59 155 72 256
9 73 9 115 0 191 -47 372 -295 657 -657 755 -93 25 -269 32 -362 14z m-656
-648 c-2 -18 -4 -6 -4 27 0 33 2 48 4 33 2 -15 2 -42 0 -60z m1230 -24 c-3 -3
-12 -4 -19 -1 -8 3 -5 6 6 6 11 1 17 -2 13 -5z m-1126 -231 c13 -16 12 -17 -3
-4 -10 7 -18 15 -18 17 0 8 8 3 21 -13z m669 -6 c0 -2 -10 -12 -22 -23 l-23
-19 19 23 c18 21 26 27 26 19z m-322 -154 c-10 -2 -26 -2 -35 0 -10 3 -2 5 17
5 19 0 27 -2 18 -5z"/>
<path d="M3658 3249 c-16 -12 -28 -30 -28 -43 0 -29 170 -280 193 -284 25 -5
87 45 87 69 0 10 -39 78 -87 149 -94 143 -108 152 -165 109z"/>
<path d="M1243 2174 c-18 -14 -33 -34 -33 -45 0 -25 413 -644 436 -653 26 -10
94 39 93 67 -1 34 -420 651 -444 655 -11 1 -35 -9 -52 -24z"/>
<path d="M3798 2183 c-37 -43 -168 -256 -168 -273 0 -23 50 -60 82 -60 21 0
40 23 111 130 48 71 87 139 87 149 0 22 -57 71 -82 71 -8 0 -22 -8 -30 -17z"/>
<path d="M1068 2059 c-16 -12 -28 -30 -28 -43 0 -29 170 -280 193 -284 23 -5
87 44 87 66 0 10 -39 76 -87 147 -96 142 -113 154 -165 114z"/>
<path d="M3957 2048 c-62 -83 -157 -235 -157 -250 0 -22 64 -71 87 -66 23 4
193 255 193 284 0 26 -47 64 -79 64 -11 0 -31 -14 -44 -32z"/>
<path d="M906 1951 c-59 -39 -64 -29 168 -377 169 -253 221 -324 237 -324 29
0 78 30 85 53 8 26 -418 667 -444 667 -9 0 -30 -9 -46 -19z"/>
<path d="M4059 1834 c-99 -148 -103 -165 -50 -197 53 -31 62 -25 147 101 97
141 106 156 98 176 -7 19 -65 56 -88 56 -9 0 -53 -55 -107 -136z"/>
<path d="M3558 1818 c-26 -21 -178 -258 -178 -279 0 -28 73 -74 97 -60 32 16
185 256 181 282 -2 13 -18 34 -37 46 -39 27 -42 27 -63 11z"/>
<path d="M1311 1681 c-17 -16 -31 -33 -31 -37 0 -5 41 -70 91 -146 68 -101 97
-138 112 -138 26 0 87 46 87 66 0 8 -41 75 -90 149 -101 151 -113 158 -169
106z"/>
<path d="M3640 1575 c-49 -74 -90 -141 -90 -149 0 -20 61 -66 87 -66 15 0 45
37 112 139 100 150 102 158 47 195 -50 32 -60 24 -156 -119z"/>
<path d="M3898 1587 c-7 -8 -51 -70 -96 -140 -60 -89 -82 -131 -78 -145 8 -24
65 -56 91 -51 12 3 54 55 109 135 97 145 100 158 42 194 -39 24 -50 25 -68 7z"/>
</g>
</svg>
